<svg aria-hidden="true" style="position: absolute; width: 0; height: 0; overflow: hidden;" version="1.1" xmlns="http://www.w3.org/2000/svg" xmlns:xlink="http://www.w3.org/1999/xlink">
<defs>
<symbol id="icon-youtube" viewBox="0 0 32 32">
<path fill="currentColor" d="M8.55 2.56l1.893 6.84v3.28h1.64v-3.28l1.918-6.84h-1.652l-0.688 3.112c-0.193 0.909-0.316 1.555-0.373 1.94h-0.050c-0.081-0.539-0.204-1.19-0.373-1.952l-0.662-3.1h-1.652zM15.912 5.143c-0.556 0-1.003 0.109-1.345 0.33-0.342 0.22-0.594 0.572-0.755 1.055-0.16 0.483-0.24 1.121-0.24 1.918v1.075c0 0.787 0.069 1.418 0.21 1.893s0.378 0.825 0.713 1.050c0.334 0.225 0.794 0.338 1.38 0.338 0.571 0 1.025-0.111 1.358-0.332s0.574-0.569 0.722-1.047c0.148-0.479 0.223-1.112 0.223-1.9v-1.075c0-0.795-0.075-1.431-0.228-1.91-0.152-0.477-0.395-0.83-0.725-1.055s-0.766-0.338-1.313-0.338zM19.045 5.288v5.522c0 0.684 0.115 1.186 0.348 1.508s0.595 0.482 1.085 0.482c0.707 0 1.239-0.341 1.592-1.025h0.035l0.145 0.905h1.303v-7.393h-1.663v5.873c-0.064 0.137-0.162 0.249-0.295 0.338-0.133 0.090-0.27 0.133-0.415 0.133-0.169 0-0.29-0.069-0.363-0.21s-0.11-0.377-0.11-0.707v-5.425h-1.662zM15.875 6.288c0.233 0 0.398 0.122 0.49 0.367 0.092 0.244 0.137 0.634 0.137 1.165v2.303c0 0.547-0.045 0.942-0.137 1.182s-0.256 0.361-0.488 0.363c-0.233 0-0.394-0.122-0.482-0.363-0.090-0.241-0.133-0.636-0.133-1.183v-2.303c0-0.53 0.045-0.919 0.137-1.165 0.092-0.244 0.25-0.367 0.475-0.367zM7.68 14.080c-1.408 0-2.56 1.152-2.56 2.56v8.96c0 1.408 1.152 2.56 2.56 2.56h17.92c1.408 0 2.56-1.152 2.56-2.56v-8.96c0-1.408-1.152-2.56-2.56-2.56h-17.92zM16.702 16.64h1.352v3.288h0.010c0.122-0.238 0.296-0.429 0.52-0.575s0.466-0.217 0.725-0.217c0.333 0 0.593 0.088 0.783 0.265s0.328 0.462 0.412 0.855c0.084 0.394 0.125 0.941 0.125 1.64v0.988h0.003c0 0.931-0.114 1.612-0.338 2.050s-0.573 0.657-1.048 0.657c-0.265 0-0.505-0.061-0.722-0.182s-0.381-0.289-0.49-0.5h-0.030l-0.143 0.59h-1.16v-8.857zM8.302 16.955h4.162v1.132h-1.395v7.41h-1.373v-7.41h-1.395v-1.132zM23.165 19.138c0.481 0 0.851 0.088 1.11 0.265 0.257 0.177 0.439 0.452 0.545 0.825 0.105 0.374 0.157 0.89 0.157 1.548v1.070h-2.35v0.318c0 0.401 0.011 0.7 0.035 0.9s0.073 0.347 0.148 0.437c0.074 0.092 0.189 0.137 0.345 0.137 0.21 0 0.354-0.082 0.432-0.245s0.121-0.432 0.128-0.812l1.212 0.070c0.006 0.054 0.010 0.13 0.010 0.225 0 0.577-0.159 1.008-0.475 1.292-0.316 0.285-0.76 0.428-1.337 0.428-0.692 0-1.179-0.219-1.458-0.652s-0.417-1.105-0.417-2.015v-1.090c0-0.937 0.144-1.621 0.432-2.052s0.784-0.648 1.483-0.648zM12.045 19.258h1.408v4.583c0 0.278 0.031 0.477 0.092 0.595 0.061 0.119 0.162 0.177 0.305 0.177 0.122 0 0.241-0.037 0.352-0.112 0.113-0.074 0.192-0.17 0.248-0.285v-4.958h1.408v6.24h-1.102l-0.12-0.765h-0.033c-0.3 0.579-0.747 0.868-1.345 0.868-0.415 0-0.718-0.136-0.915-0.408s-0.297-0.696-0.297-1.272v-4.663zM23.135 20.088c-0.15 0-0.261 0.045-0.332 0.132-0.072 0.088-0.119 0.233-0.142 0.432-0.024 0.2-0.035 0.503-0.035 0.91v0.447h1.028v-0.447c0-0.401-0.013-0.703-0.040-0.91-0.026-0.207-0.076-0.353-0.148-0.437s-0.18-0.128-0.33-0.128zM18.677 20.133c-0.136 0-0.26 0.054-0.375 0.163s-0.198 0.248-0.245 0.417v3.543c0.061 0.109 0.141 0.19 0.24 0.245 0.099 0.054 0.204 0.083 0.32 0.083 0.15 0 0.267-0.054 0.355-0.163s0.153-0.292 0.19-0.55c0.037-0.257 0.055-0.616 0.055-1.070v-0.803c0-0.489-0.014-0.865-0.045-1.13s-0.086-0.456-0.163-0.568c-0.078-0.111-0.189-0.168-0.332-0.168z"></path>
</symbol>
<symbol id="icon-user" viewBox="0 0 32 32">
  <path
    stroke="currentColor"
    stroke-width="2"
    stroke-miterlimit="4"
    stroke-linecap="round"
    stroke-linejoin="round"
    d="M4 29.333v-1.667c0-3.094 1.229-6.062 3.417-8.25s5.155-3.417 8.25-3.417M15.667 16c3.094 0 6.062 1.229 8.25 3.417s3.417 5.155 3.417 8.25v1.667M15.667 16c1.768 0 3.464-0.702 4.714-1.953s1.953-2.946 1.953-4.714-0.702-3.464-1.953-4.714c-1.25-1.25-2.946-1.953-4.714-1.953s-3.464 0.702-4.714 1.953c-1.25 1.25-1.953 2.946-1.953 4.714s0.702 3.464 1.953 4.714c1.25 1.25 2.946 1.953 4.714 1.953z"
    fill="none"
  />
</symbol>
<symbol id="icon-twitter" viewBox="0 0 32 32">
<path fill="currentColor" d="M29.44 5.119c-0.998 0.593-3.002 1.4-4.179 1.633-0.035 0.009-0.063 0.020-0.096 0.029-1.041-1.027-2.467-1.663-4.045-1.663-3.181 0-5.76 2.579-5.76 5.76 0 0.168-0.014 0.476 0 0.64-4.292 0-7.558-2.248-9.901-5.12-0.255 0.64-0.366 1.651-0.366 2.601 0 1.793 1.402 3.555 3.584 4.646-0.402 0.104-0.845 0.178-1.306 0.178-0.744 0-1.531-0.196-2.252-0.79 0 0.022 0 0.042 0 0.065 0 2.506 2.66 4.212 5.025 4.687-0.48 0.283-1.448 0.311-1.92 0.311-0.333 0-1.51-0.152-1.825-0.211 0.658 2.054 3.031 3.209 5.293 3.25-1.769 1.388-2.996 1.902-6.619 1.902h-1.234c2.289 1.467 5.203 2.561 8.124 2.561 9.51 0 14.916-7.249 14.916-14.081 0-0.11-0.003-0.34-0.006-0.572 0-0.023 0.006-0.045 0.006-0.068 0-0.035-0.010-0.068-0.010-0.102-0.004-0.174-0.008-0.337-0.012-0.421 1.011-0.73 1.888-1.64 2.582-2.676-0.928 0.412-1.924 0.689-2.97 0.814 1.068-0.64 2.584-2.166 2.97-3.374z"></path>
</symbol>
<symbol id="icon-search" viewBox="0 0 32 32">
<path fill="currentColor" d="M13.44 1.92c-6.003 0-10.88 4.878-10.88 10.88s4.878 10.88 10.88 10.88c2.375 0 4.57-0.765 6.36-2.060l8.42 8.4 1.8-1.8-8.32-8.34c1.635-1.905 2.62-4.378 2.62-7.080 0-6.003-4.878-10.88-10.88-10.88zM13.44 3.2c5.31 0 9.6 4.29 9.6 9.6s-4.29 9.6-9.6 9.6-9.6-4.29-9.6-9.6c0-5.31 4.29-9.6 9.6-9.6z"></path>
</symbol>
<symbol id="icon-plus" viewBox="0 0 30 32">
<path fill="currentColor" d="M26.25 16c0 0.249-0.099 0.487-0.275 0.663s-0.414 0.275-0.663 0.275h-9.375v9.375c0 0.249-0.099 0.487-0.275 0.663s-0.414 0.275-0.663 0.275c-0.249 0-0.487-0.099-0.663-0.275s-0.275-0.414-0.275-0.663v-9.375h-9.375c-0.249 0-0.487-0.099-0.663-0.275s-0.275-0.414-0.275-0.663c0-0.249 0.099-0.487 0.275-0.663s0.414-0.275 0.663-0.275h9.375v-9.375c0-0.249 0.099-0.487 0.275-0.663s0.414-0.275 0.663-0.275c0.249 0 0.487 0.099 0.663 0.275s0.275 0.414 0.275 0.663v9.375h9.375c0.249 0 0.487 0.099 0.663 0.275s0.275 0.414 0.275 0.663z"></path>
</symbol>
<symbol id="icon-menu" viewBox="0 0 32 32">
<path fill="currentColor" d="M5.333 23.027v-1.333h21.333v1.333h-21.333zM5.333 16.667v-1.333h21.333v1.333h-21.333zM5.333 10.307v-1.333h21.333v1.333h-21.333z"></path>
</symbol>
<symbol id="icon-instagram" viewBox="0 0 32 32">
<path fill="currentColor" d="M11.52 3.84c-3.534 0-6.4 2.866-6.4 6.4v10.24c0 3.534 2.866 6.4 6.4 6.4h10.24c3.534 0 6.4-2.866 6.4-6.4v-10.24c0-3.534-2.866-6.4-6.4-6.4h-10.24zM24.32 6.4c0.707 0 1.28 0.573 1.28 1.28s-0.573 1.28-1.28 1.28c-0.707 0-1.28-0.573-1.28-1.28s0.573-1.28 1.28-1.28zM16.64 8.96c3.534 0 6.4 2.866 6.4 6.4s-2.866 6.4-6.4 6.4c-3.534 0-6.4-2.866-6.4-6.4s2.866-6.4 6.4-6.4zM16.64 11.52c-1.018 0-1.995 0.405-2.715 1.125s-1.125 1.697-1.125 2.715c0 1.018 0.405 1.995 1.125 2.715s1.697 1.125 2.715 1.125c1.018 0 1.995-0.405 2.715-1.125s1.125-1.697 1.125-2.715c0-1.018-0.405-1.995-1.125-2.715s-1.697-1.125-2.715-1.125z"></path>
</symbol>
<symbol id="icon-heart-linear" viewBox="0 0 32 32">
<path fill="currentColor" d="M16 7.333l-0.72 0.693c0.093 0.097 0.205 0.174 0.329 0.226s0.257 0.080 0.391 0.080c0.134 0 0.267-0.027 0.391-0.080s0.235-0.13 0.329-0.226l-0.72-0.693zM12.568 24.429c-2.021-1.593-4.231-3.149-5.984-5.123-1.717-1.936-2.917-4.193-2.917-7.124h-2c0 3.555 1.48 6.267 3.423 8.452 1.907 2.147 4.339 3.867 6.24 5.365l1.239-1.571zM3.667 12.183c0-2.867 1.62-5.272 3.832-6.284 2.149-0.983 5.037-0.723 7.781 2.128l1.44-1.385c-3.253-3.383-7.035-3.941-10.053-2.561-2.952 1.351-5 4.487-5 8.103h2zM11.329 26c0.684 0.539 1.417 1.112 2.16 1.547 0.743 0.433 1.591 0.787 2.511 0.787v-2c-0.413 0-0.899-0.16-1.501-0.513-0.604-0.352-1.229-0.837-1.931-1.391l-1.239 1.571zM20.671 26c1.901-1.5 4.333-3.217 6.24-5.365 1.943-2.187 3.423-4.897 3.423-8.452h-2c0 2.931-1.2 5.188-2.917 7.124-1.753 1.973-3.963 3.529-5.984 5.123l1.239 1.571zM30.333 12.183c0-3.616-2.047-6.752-5-8.103-3.019-1.38-6.797-0.821-10.053 2.56l1.44 1.387c2.744-2.849 5.632-3.111 7.781-2.128 2.212 1.012 3.832 3.416 3.832 6.284h2zM19.432 24.429c-0.701 0.553-1.327 1.039-1.931 1.391-0.603 0.352-1.088 0.513-1.501 0.513v2c0.92 0 1.768-0.353 2.511-0.787 0.744-0.435 1.476-1.008 2.16-1.547l-1.239-1.571z"></path>
</symbol>
<symbol id="icon-bag-outline" viewBox="0 0 32 32">
<path fill="currentColor" d="M16 3.667c0.394-0 0.784 0.077 1.149 0.228s0.695 0.372 0.974 0.65c0.279 0.279 0.5 0.609 0.651 0.973s0.228 0.754 0.228 1.148v0.347c-0.744-0.013-1.56-0.013-2.453-0.013h-1.095c-0.896 0-1.711 0-2.453 0.013v-0.347c0-0.796 0.316-1.559 0.879-2.121s1.326-0.879 2.121-0.879zM21 7.104c0.184 0.016 0.368 0.035 0.552 0.057 1.347 0.165 2.457 0.516 3.4 1.299 0.944 0.783 1.491 1.809 1.904 3.103 0.397 1.252 0.7 2.863 1.080 4.888l0.027 0.147c0.536 2.857 0.959 5.109 1.036 6.884 0.079 1.82-0.191 3.327-1.217 4.563-1.027 1.237-2.459 1.781-4.261 2.039-1.759 0.251-4.049 0.251-6.956 0.251h-1.127c-2.908 0-5.197 0-6.957-0.251-1.803-0.257-3.233-0.801-4.26-2.039-1.027-1.236-1.299-2.743-1.219-4.563 0.079-1.775 0.5-4.027 1.036-6.884l0.028-0.147c0.379-2.025 0.68-3.635 1.080-4.888 0.412-1.293 0.96-2.32 1.903-3.103 0.944-0.783 2.053-1.132 3.4-1.299 0.179-0.023 0.361-0.041 0.552-0.057v-0.437c0-1.326 0.527-2.598 1.464-3.536s2.21-1.464 3.536-1.464c1.326 0 2.598 0.527 3.536 1.464s1.464 2.209 1.464 3.536v0.437zM10.693 9.147c-1.14 0.14-1.829 0.405-2.368 0.853-0.537 0.445-0.925 1.073-1.275 2.169-0.356 1.12-0.637 2.611-1.032 4.716-0.555 2.956-0.948 5.067-1.019 6.684-0.069 1.587 0.187 2.507 0.759 3.199 0.573 0.689 1.431 1.109 3.004 1.333 1.6 0.229 3.749 0.232 6.757 0.232h0.96c3.009 0 5.156-0.003 6.757-0.231 1.573-0.225 2.431-0.645 3.004-1.335 0.573-0.691 0.828-1.611 0.76-3.2-0.072-1.615-0.465-3.727-1.020-6.683-0.395-2.107-0.675-3.595-1.032-4.716-0.349-1.096-0.736-1.724-1.275-2.171s-1.227-0.712-2.368-0.853c-1.168-0.144-2.684-0.145-4.827-0.145h-0.96c-2.143 0-3.659 0.001-4.827 0.147z"></path>
</symbol>
<symbol id="icon-facebook" viewBox="0 0 32 32">
<path fill="currentColor" d="M16.64 2.56c-7.069 0-12.8 5.731-12.8 12.8 0 6.417 4.727 11.716 10.886 12.641v-9.249h-3.167v-3.365h3.167v-2.239c0-3.707 1.806-5.334 4.887-5.334 1.476 0 2.255 0.109 2.625 0.159v2.936h-2.102c-1.308 0-1.765 1.24-1.765 2.638v1.839h3.834l-0.52 3.365h-3.313v9.276c6.248-0.846 11.067-6.189 11.067-12.668 0-7.069-5.731-12.8-12.8-12.8z"></path>
</symbol>
</defs>
</svg>
